<svg xmlns="http://www.w3.org/2000/svg" xmlns:xlink="http://www.w3.org/1999/xlink" contentStyleType="text/css" height="815px" preserveAspectRatio="none" style="width:2386px;height:815px;background:#FFFFFF;" version="1.1" viewBox="0 0 2386 815" width="2386px" zoomAndPan="magnify" xmlns:c2pa="http://c2pa.org/manifest"><metadata><c2pa:manifest>AAAWgmp1bWIAAAAeanVtZGMycGEAEQAQgAAAqgA4m3EDYzJwYQAAABZcanVtYgAAAEdqdW1kYzJtYQARABCAAACqADibcQN1cm46YzJwYTo0NmVkNDU3OS0zOTYxLTQwMGUtOWUyZC1mY2MzZDgyMDNhNWYAAAADl2p1bWIAAAApanVtZGMyYXMAEQAQgAAAqgA4m3EDYzJwYS5hc3NlcnRpb25zAAAAALxqdW1iAAAARGp1bWRjYm9yABEAEIAAAKoAOJtxE2MycGEuaW5ncmVkaWVudC52MwAAAAAYYzJzaDj9CGAJEfYhcYhOUmnYKNUAAABwY2JvcqNpZGM6Zm9ybWF0bWltYWdlL3N2Zyt4bWxqaW5zdGFuY2VJRHgseG1wOmlpZDo5NGM4NzM3MC0xNDNkLTQyNzEtYjllNS1iYzlmMGQyOTkwNDdscmVsYXRpb25zaGlwaHBhcmVudE9mAAAB4mp1bWIAAABBanVtZGNib3IAEQAQgAAAqgA4m3ETYzJwYS5hY3Rpb25zLnYyAAAAABhjMnNoudlintmX3FvSi8GTyF3eOwAAAZljYm9yomdhY3Rpb25zgqJmYWN0aW9ua2MycGEub3BlbmVkanBhcmFtZXRlcnOha2luZ3JlZGllbnRzgaJjdXJseC1zZWxmI2p1bWJmPWMycGEuYXNzZXJ0aW9ucy9jMnBhLmluZ3JlZGllbnQudjNkaGFzaFggC8J3/vRTToxNHhaRha47SM7H6TTKDSj+NCHRprM7rQikZmFjdGlvbngdY29tLmFudGhyb3BpYy5jbGF1ZGUucHJvdmlkZWRqcGFyYW1ldGVyc6F4H2NvbS5hbnRocm9waWMub3JpZ2luLWNvbmZpZGVuY2VndW5rbm93bmtkZXNjcmlwdGlvbnhmQ2xhdWRlIHByb3ZpZGVkIHRoaXMgZmlsZSBhdCB0aGUgcmVxdWVzdCBvZiBhIHVzZXIgYW5kIG1heSBoYXZlIGNyZWF0ZWQgb3IgbW9kaWZpZWQgdGhlIGZpbGUgY29udGVudHMubXNvZnR3YXJlQWdlbnShZG5hbWVmQ2xhdWRlcmFsbEFjdGlvbnNJbmNsdWRlZPUAAADIanVtYgAAAEBqdW1kY2JvcgARABCAAACqADibcRNjMnBhLmhhc2guZGF0YQAAAAAYYzJzaDXkbFdc/wufyGk/C6jlF+sAAACAY2JvcqVjYWxnZnNoYTI1NmNwYWRMAAAAAAAAAAAAAAAAZGhhc2hYIKiU5w1i234JuBYkhH2KpQn6DmfNDqjG4/h/RHN37oeCZG5hbWVuanVtYmYgbWFuaWZlc3RqZXhjbHVzaW9uc4GiZXN0YXJ0GQFXZmxlbmd0aBkeBAAAAj5qdW1iAAAAJ2p1bWRjMmNsABEAEIAAAKoAOJtxA2MycGEuY2xhaW0udjIAAAACD2Nib3KlY2FsZ2ZzaGEyNTZpc2lnbmF0dXJleE1zZWxmI2p1bWJmPS9jMnBhL3VybjpjMnBhOjQ2ZWQ0NTc5LTM5NjEtNDAwZS05ZTJkLWZjYzNkODIwM2E1Zi9jMnBhLnNpZ25hdHVyZWppbnN0YW5jZUlEeCx4bXA6aWlkOjA4Y2MzMmUyLTc3NjUtNGYwZS04NWQ3LTM2NDJhMWM0ZDM2ZHJjcmVhdGVkX2Fzc2VydGlvbnODomN1cmx4LXNlbGYjanVtYmY9YzJwYS5hc3NlcnRpb25zL2MycGEuaW5ncmVkaWVudC52M2RoYXNoWCALwnf+9FNOjE0eFpGFrjtIzsfpNMoNKP40IdGmszutCKJjdXJseCpzZWxmI2p1bWJmPWMycGEuYXNzZXJ0aW9ucy9jMnBhLmFjdGlvbnMudjJkaGFzaFggxHcybrevN5dEtv60gI7cO0yZbOc7joYylJfPkJ4YXgGiY3VybHgpc2VsZiNqdW1iZj1jMnBhLmFzc2VydGlvbnMvYzJwYS5oYXNoLmRhdGFkaGFzaFgg6YIiuFoDcJXObyjO2ts45/W8trSFkF8QChHNjdkf0VF0Y2xhaW1fZ2VuZXJhdG9yX2luZm+jZG5hbWVvQW50aHJvcGljIEZpbGVzZ3ZlcnNpb25lMS4wLjBrc3BlY1ZlcnNpb25lMi40LjAAABA4anVtYgAAAChqdW1kYzJjcwARABCAAACqADibcQNjMnBhLnNpZ25hdHVyZQAAABAIY2JvctKEWQISogEmGCFZAgowggIGMIIBjaADAgECAhRA5aAK7sI50L64g/oGQgU9Z1UTADAKBggqhkjOPQQDAzBJMRcwFQYDVQQKEw5BbnRocm9waWMsIFBCQzEuMCwGA1UEAxMlQW50aHJvcGljIENvbnRlbnQgQ3JlZGVudGlhbHMgUm9vdCBDQTAeFw0yNjA4MDcxODQzNTZaFw0yODA4MDYxOTQzNTZaMEQxFzAVBgNVBAoTDkFudGhyb3BpYywgUEJDMSkwJwYDVQQDEyBBbnRocm9waWMgQ2xhdWRlIENvbnRlbnQgU2lnbmluZzBZMBMGByqGSM49AgEGCCqGSM49AwEHA0IABJh6CmvLUBgFFNU0vUKlOVtE6djd17L5SuwX0LemFisBM3dkd/3cyjxFA3Qo5S46fX0/ihY0VZ7mfb9KF703t5OjWDBWMA4GA1UdDwEB/wQEAwIHgDAVBgNVHSUEDjAMBgorBgEEAYPoXgIBMAwGA1UdEwEB/wQCMAAwHwYDVR0jBBgwFoAUzlHiBIFOZFsj+OPEz5o+nMHXXMIwCgYIKoZIzj0EAwMDZwAwZAIwMXMdFJ4BetLLVY7ORuE9noqbbAZOZn/aArXyTwFAZfKrPzxF2vPoJNf1+UCdg1XGAjBwX1zd9WGqYkqmL5SFqw1QySjr1zJfpJM9+1rdDwSPLMOPOjKuiXjoU/pUUeG9RwmhY3BhZFkNngAAAAAAAAAAAAAAAAAAAAAAAAAAAAAAAAAAAAAAAAAAAAAAAAAAAAAAAAAAAAAAAAAAAAAAAAAAAAAAAAAAAAAAAAAAAAAAAAAAAAAAAAAAAAAAAAAAAAAAAAAAAAAAAAAAAAAAAAAAAAAAAAAAAAAAAAAAAAAAAAAAAAAAAAAAAAAAAAAAAAAAAAAAAAAAAAAAAAAAAAAAAAAAAAAAAAAAAAAAAAAAAAAAAAAAAAAAAAAAAAAAAAAAAAAAAAAAAAAAAAAAAAAAAAAAAAAAAAAAAAAAAAAAAAAAAAAAAAAAAAAAAAAAAAAAAAAAAAAAAAAAAAAAAAAAAAAAAAAAAAAAAAAAAAAAAAAAAAAAAAAAAAAAAAAAAAAAAAAAAAAAAAAAAAAAAAAAAAAAAAAAAAAAAAAAAAAAAAAAAAAAAAAAAAAAAAAAAAAAAAAAAAAAAAAAAAAAAAAAAAAAAAAAAAAAAAAAAAAAAAAAAAAAAAAAAAAAAAAAAAAAAAAAAAAAAAAAAAAAAAAAAAAAAAAAAAAAAAAAAAAAAAAAAAAAAAAAAAAAAAAAAAAAAAAAAAAAAAAAAAAAAAAAAAAAAAAAAAAAAAAAAAAAAAAAAAAAAAAAAAAAAAAAAAAAAAAAAAAAAAAAAAAAAAAAAAAAAAAAAAAAAAAAAAAAAAAAAAAAAAAAAAAAAAAAAAAAAAAAAAAAAAAAAAAAAAAAAAAAAAAAAAAAAAAAAAAAAAAAAAAAAAAAAAAAAAAAAAAAAAAAAAAAAAAAAAAAAAAAAAAAAAAAAAAAAAAAAAAAAAAAAAAAAAAAAAAAAAAAAAAAAAAAAAAAAAAAAAAAAAAAAAAAAAAAAAAAAAAAAAAAAAAAAAAAAAAAAAAAAAAAAAAAAAAAAAAAAAAAAAAAAAAAAAAAAAAAAAAAAAAAAAAAAAAAAAAAAAAAAAAAAAAAAAAAAAAAAAAAAAAAAAAAAAAAAAAAAAAAAAAAAAAAAAAAAAAAAAAAAAAAAAAAAAAAAAAAAAAAAAAAAAAAAAAAAAAAAAAAAAAAAAAAAAAAAAAAAAAAAAAAAAAAAAAAAAAAAAAAAAAAAAAAAAAAAAAAAAAAAAAAAAAAAAAAAAAAAAAAAAAAAAAAAAAAAAAAAAAAAAAAAAAAAAAAAAAAAAAAAAAAAAAAAAAAAAAAAAAAAAAAAAAAAAAAAAAAAAAAAAAAAAAAAAAAAAAAAAAAAAAAAAAAAAAAAAAAAAAAAAAAAAAAAAAAAAAAAAAAAAAAAAAAAAAAAAAAAAAAAAAAAAAAAAAAAAAAAAAAAAAAAAAAAAAAAAAAAAAAAAAAAAAAAAAAAAAAAAAAAAAAAAAAAAAAAAAAAAAAAAAAAAAAAAAAAAAAAAAAAAAAAAAAAAAAAAAAAAAAAAAAAAAAAAAAAAAAAAAAAAAAAAAAAAAAAAAAAAAAAAAAAAAAAAAAAAAAAAAAAAAAAAAAAAAAAAAAAAAAAAAAAAAAAAAAAAAAAAAAAAAAAAAAAAAAAAAAAAAAAAAAAAAAAAAAAAAAAAAAAAAAAAAAAAAAAAAAAAAAAAAAAAAAAAAAAAAAAAAAAAAAAAAAAAAAAAAAAAAAAAAAAAAAAAAAAAAAAAAAAAAAAAAAAAAAAAAAAAAAAAAAAAAAAAAAAAAAAAAAAAAAAAAAAAAAAAAAAAAAAAAAAAAAAAAAAAAAAAAAAAAAAAAAAAAAAAAAAAAAAAAAAAAAAAAAAAAAAAAAAAAAAAAAAAAAAAAAAAAAAAAAAAAAAAAAAAAAAAAAAAAAAAAAAAAAAAAAAAAAAAAAAAAAAAAAAAAAAAAAAAAAAAAAAAAAAAAAAAAAAAAAAAAAAAAAAAAAAAAAAAAAAAAAAAAAAAAAAAAAAAAAAAAAAAAAAAAAAAAAAAAAAAAAAAAAAAAAAAAAAAAAAAAAAAAAAAAAAAAAAAAAAAAAAAAAAAAAAAAAAAAAAAAAAAAAAAAAAAAAAAAAAAAAAAAAAAAAAAAAAAAAAAAAAAAAAAAAAAAAAAAAAAAAAAAAAAAAAAAAAAAAAAAAAAAAAAAAAAAAAAAAAAAAAAAAAAAAAAAAAAAAAAAAAAAAAAAAAAAAAAAAAAAAAAAAAAAAAAAAAAAAAAAAAAAAAAAAAAAAAAAAAAAAAAAAAAAAAAAAAAAAAAAAAAAAAAAAAAAAAAAAAAAAAAAAAAAAAAAAAAAAAAAAAAAAAAAAAAAAAAAAAAAAAAAAAAAAAAAAAAAAAAAAAAAAAAAAAAAAAAAAAAAAAAAAAAAAAAAAAAAAAAAAAAAAAAAAAAAAAAAAAAAAAAAAAAAAAAAAAAAAAAAAAAAAAAAAAAAAAAAAAAAAAAAAAAAAAAAAAAAAAAAAAAAAAAAAAAAAAAAAAAAAAAAAAAAAAAAAAAAAAAAAAAAAAAAAAAAAAAAAAAAAAAAAAAAAAAAAAAAAAAAAAAAAAAAAAAAAAAAAAAAAAAAAAAAAAAAAAAAAAAAAAAAAAAAAAAAAAAAAAAAAAAAAAAAAAAAAAAAAAAAAAAAAAAAAAAAAAAAAAAAAAAAAAAAAAAAAAAAAAAAAAAAAAAAAAAAAAAAAAAAAAAAAAAAAAAAAAAAAAAAAAAAAAAAAAAAAAAAAAAAAAAAAAAAAAAAAAAAAAAAAAAAAAAAAAAAAAAAAAAAAAAAAAAAAAAAAAAAAAAAAAAAAAAAAAAAAAAAAAAAAAAAAAAAAAAAAAAAAAAAAAAAAAAAAAAAAAAAAAAAAAAAAAAAAAAAAAAAAAAAAAAAAAAAAAAAAAAAAAAAAAAAAAAAAAAAAAAAAAAAAAAAAAAAAAAAAAAAAAAAAAAAAAAAAAAAAAAAAAAAAAAAAAAAAAAAAAAAAAAAAAAAAAAAAAAAAAAAAAAAAAAAAAAAAAAAAAAAAAAAAAAAAAAAAAAAAAAAAAAAAAAAAAAAAAAAAAAAAAAAAAAAAAAAAAAAAAAAAAAAAAAAAAAAAAAAAAAAAAAAAAAAAAAAAAAAAAAAAAAAAAAAAAAAAAAAAAAAAAAAAAAAAAAAAAAAAAAAAAAAAAAAAAAAAAAAAAAAAAAAAAAAAAAAAAAAAAAAAAAAAAAAAAAAAAAAAAAAAAAAAAAAAAAAAAAAAAAAAAAAAAAAAAAAAAAAAAAAAAAAAAAAAAAAAAAAAAAAAAAAAAAAAAAAAAAAAAAAAAAAAAAAAAAAAAAAAAAAAAAAAAAAAAAAAAAAAAAAAAAAAAAAAAAAAAAAAAAAAAAAAAAAAAAAAAAAAAAAAAAAAAAAAAAAAAAAAAAAAAAAAAAAAAAAAAAAAAAAAAAAAAAAAAAAAAAAAAAAAAAAAAAAAAAAAAAAAAAAAAAAAAAAAAAAAAAAAAAAAAAAAAAAAAAAAAAAAAAAAAAAAAAAAAAAAAAAAAAAAAAAAAAAAAAAAAAAAAAAAAAAAAAAAAAAAAAAAAAAAAAAAAAAAAAAAAAAAAAAAAAAAAAAAAAAAAAAAAAAAAAAAAAAAAAAAAAAAAAAAAAAAAAAAAAAAAAAAAAAAAAAAAAAAAAAAAAAAAAAAAAAAAAAAAAAAAAAAAAAAAAAAAAAAAAAAAAAAAAAAAAAAAAAAAAAAAAAAAAAAAAAAAAAAAAAAAAAAAAAAAAAAAAAAAAAAAAAAAAAAAAAAAAAAAAAAAAAAAAAAAAAAAAAAAAAAAAAAAAAAAAAAAAAAAAAAAAAAAAAAAAAAAAAAAAAAAAAAAAAAAAAAAAAAAAAAAAAAAAAAAAAAAAAAAAAAAAAAAAAAAAAAAAAAAAAAAAAAAAAAAAAAAAAAAAAAAAAAAAAAAAAAAAAAAAAAAAAAAAAAAAAAAAAAAAAAAAAAAAAAAAAAAAAAAAAAAAAAAAAAAAAAAAAAAAAAAAAAAAAAAAAAAAAAAAAAAAAAAAAAAAAAAAAAAAAAAAAAAAAAAAAAAAAAAAAAAAAAAAAAAAAAAAAAAAAAAAAAAAAAAAAAAAAAAAAAAAAAAAAAAAAAAAAAAAAAAAAAAAAAAAAAAAAAAAAAAAAAAAAAAAAAAAAAAAAAAAAAAAAAAAAAAAAAAAAAAAAAAAAAAAAAAAAAAAAAAAAAAAAAAAAAAAAAAAAAAAAAAAAAAAAAAAAAAAAAAAAAAAAAAAAAAAAAAAAAAAAAAAAAAAAAAAAAAAAAAAAAAAAAAAAAAAAAAAAAAAAAAAAAAAAAAAAAAAAAAAAAAAAAAAAAAAAAAAAAAAAAAAAAAAAAAAAAAAAAAAAAAAAAAAAAAAAAAAAAAAAAAAAAAAAAAAAAAAAAAAAAAAAAAAAAAAAAAAAAAAAAAAAAAAAAAAAAAAAAAAAAAAAAAAAAAAAAAAAAAAAAAAAAAAAAAAAAAAAAAAAAAAAAAAAAAAAAAAAAAAAAAAAAAAAAAAAAAAAAAAAAAAAAAAAAAAAAAAAAAAAAAAAAAAAAAAAAAAAAAAAAAAAAAAAAAAAAAAAAAAAAAAAAAAAAAAAAAAAAAAAAAAAAAAAAAAAAAAAAAAAAAAAAAAAAAAAAAAAAAAAAAAAAAAAAAAAAAAAAAAAAAAAAAAAAAAAAAAAAAAAAAAAAAAAAAAAAAAAAAAAAAAAAAAAAAAAAAAAAAAAAAAAAAAAAAAAAAAAAAAAAAAAAAAAAAAAAAAAAAAAAAAAAAAAAAPZYQA7dGvSaVUTjkHk0/t2mkDQQQzo1K+/yxNUB1oU0QvrIyaDn3IMeZqUn7PsLqh9u596HBFUScnAXOAAebexSObQ=</c2pa:manifest></metadata><title>SpyScan V1 &#8212; Software structural diagram (layers and modules)</title><defs/><g><text fill="#000000" font-family="Helvetica" font-size="14" font-weight="bold" lengthAdjust="spacing" textLength="440.8223" x="965.8689" y="23.5625">SpyScan V1 &#8212; Software structural diagram (layers and modules)</text><!--cluster Application layer--><g id="cluster_Application layer"><path d="M256.5,43.9395 L373.4854,43.9395 A3.75,3.75 0 0 1 375.9854,46.4395 L382.9854,66.8789 L601.5,66.8789 A2.5,2.5 0 0 1 604,69.3789 L604,498.4395 A2.5,2.5 0 0 1 601.5,500.9395 L256.5,500.9395 A2.5,2.5 0 0 1 254,498.4395 L254,46.4395 A2.5,2.5 0 0 1 256.5,43.9395 " fill="none" style="stroke:#000000;stroke-width:1.5;"/><line style="stroke:#000000;stroke-width:1.5;" x1="254" x2="382.9854" y1="66.8789" y2="66.8789"/><text fill="#000000" font-family="Helvetica" font-size="14" font-weight="bold" lengthAdjust="spacing" textLength="115.9854" x="258" y="59.502">Application layer</text></g><!--cluster Detection services--><g id="cluster_Detection services"><path d="M1505.5,196.9395 L1634.6807,196.9395 A3.75,3.75 0 0 1 1637.1807,199.4395 L1644.1807,219.8789 L2330.5,219.8789 A2.5,2.5 0 0 1 2333,222.3789 L2333,661.9395 A2.5,2.5 0 0 1 2330.5,664.4395 L1505.5,664.4395 A2.5,2.5 0 0 1 1503,661.9395 L1503,199.4395 A2.5,2.5 0 0 1 1505.5,196.9395 " fill="none" style="stroke:#000000;stroke-width:1.5;"/><line style="stroke:#000000;stroke-width:1.5;" x1="1503" x2="1644.1807" y1="219.8789" y2="219.8789"/><text fill="#000000" font-family="Helvetica" font-size="14" font-weight="bold" lengthAdjust="spacing" textLength="128.1807" x="1507" y="212.502">Detection services</text></g><!--cluster Drivers / BSP--><g id="cluster_Drivers / BSP"><path d="M8.5,533.9395 L98.9482,533.9395 A3.75,3.75 0 0 1 101.4482,536.4395 L108.4482,556.8789 L1476.5,556.8789 A2.5,2.5 0 0 1 1479,559.3789 L1479,806.4395 A2.5,2.5 0 0 1 1476.5,808.9395 L8.5,808.9395 A2.5,2.5 0 0 1 6,806.4395 L6,536.4395 A2.5,2.5 0 0 1 8.5,533.9395 " fill="none" style="stroke:#000000;stroke-width:1.5;"/><line style="stroke:#000000;stroke-width:1.5;" x1="6" x2="108.4482" y1="556.8789" y2="556.8789"/><text fill="#000000" font-family="Helvetica" font-size="14" font-weight="bold" lengthAdjust="spacing" textLength="89.4482" x="10" y="549.502">Drivers / BSP</text></g><!--cluster ESP-IDF v5.x--><g id="cluster_ESP-IDF v5.x"><path d="M1505.5,703.9395 L1595.5039,703.9395 A3.75,3.75 0 0 1 1598.0039,706.4395 L1605.0039,726.8789 L2345.5,726.8789 A2.5,2.5 0 0 1 2348,729.3789 L2348,806.4395 A2.5,2.5 0 0 1 2345.5,808.9395 L1505.5,808.9395 A2.5,2.5 0 0 1 1503,806.4395 L1503,706.4395 A2.5,2.5 0 0 1 1505.5,703.9395 " fill="none" style="stroke:#000000;stroke-width:1.5;"/><line style="stroke:#000000;stroke-width:1.5;" x1="1503" x2="1605.0039" y1="726.8789" y2="726.8789"/><text fill="#000000" font-family="Helvetica" font-size="14" font-weight="bold" lengthAdjust="spacing" textLength="89.0039" x="1507" y="719.502">ESP-IDF v5.x</text></g><!--entity APP--><g id="elem_APP"><rect fill="#F1F1F1" height="70.8184" rx="2.5" ry="2.5" style="stroke:#181818;stroke-width:0.5;" width="150.3066" x="438" y="78.9395"/><text fill="#000000" font-family="Helvetica" font-size="14" lengthAdjust="spacing" textLength="52.6299" x="448" y="102.502">app_ctrl</text><text fill="#000000" font-family="Helvetica" font-size="14" lengthAdjust="spacing" textLength="103.6396" x="448" y="119.4414">mode manager,</text><text fill="#000000" font-family="Helvetica" font-size="14" lengthAdjust="spacing" textLength="130.3066" x="448" y="136.3809">resource arbitration</text></g><!--entity UI--><g id="elem_UI"><rect fill="#F1F1F1" height="70.8184" rx="2.5" ry="2.5" style="stroke:#181818;stroke-width:0.5;" width="158.2568" x="427" y="248.9395"/><text fill="#000000" font-family="Helvetica" font-size="14" lengthAdjust="spacing" textLength="42.8887" x="437" y="272.502">ui_fsm</text><text fill="#000000" font-family="Helvetica" font-size="14" lengthAdjust="spacing" textLength="138.2568" x="437" y="289.4414">screens + navigation</text><text fill="#000000" font-family="Helvetica" font-size="14" lengthAdjust="spacing" textLength="131.9541" x="437" y="306.3809">(portable C, no HW)</text></g><!--entity HIST--><g id="elem_HIST"><rect fill="#F1F1F1" height="53.8789" rx="2.5" ry="2.5" style="stroke:#181818;stroke-width:0.5;" width="118.7861" x="270.5" y="422.4395"/><text fill="#000000" font-family="Helvetica" font-size="14" lengthAdjust="spacing" textLength="45.1719" x="280.5" y="446.002">history</text><text fill="#000000" font-family="Helvetica" font-size="14" lengthAdjust="spacing" textLength="98.7861" x="280.5" y="462.9414">session results</text></g><!--entity DIAG--><g id="elem_DIAG"><rect fill="#F1F1F1" height="70.8184" rx="2.5" ry="2.5" style="stroke:#181818;stroke-width:0.5;" width="162.6455" x="424.5" y="413.9395"/><text fill="#000000" font-family="Helvetica" font-size="14" lengthAdjust="spacing" textLength="28.4102" x="434.5" y="437.502">diag</text><text fill="#000000" font-family="Helvetica" font-size="14" lengthAdjust="spacing" textLength="142.6455" x="434.5" y="454.4414">battery, heap, stacks,</text><text fill="#000000" font-family="Helvetica" font-size="14" lengthAdjust="spacing" textLength="88.8945" x="434.5" y="471.3809">sensor status</text></g><!--entity OPT--><g id="elem_OPT"><rect fill="#F1F1F1" height="104.6973" rx="2.5" ry="2.5" style="stroke:#181818;stroke-width:0.5;" width="191.4453" x="1519.5" y="231.9395"/><text fill="#000000" font-family="Helvetica" font-size="14" lengthAdjust="spacing" textLength="102.4844" x="1529.5" y="255.502">optical_pipeline</text><text fill="#000000" font-family="Helvetica" font-size="14" lengthAdjust="spacing" textLength="167.3643" x="1529.5" y="272.4414">ON&#8722;OFF diff, noise stats,</text><text fill="#000000" font-family="Helvetica" font-size="14" lengthAdjust="spacing" textLength="171.4453" x="1529.5" y="289.3809">adaptive threshold, blobs,</text><text fill="#000000" font-family="Helvetica" font-size="14" lengthAdjust="spacing" textLength="132.1455" x="1529.5" y="306.3203">persistence tracker,</text><text fill="#000000" font-family="Helvetica" font-size="14" lengthAdjust="spacing" textLength="113.5654" x="1529.5" y="323.2598">off-axis ratio test</text></g><!--entity TT--><g id="elem_TT"><rect fill="#F1F1F1" height="70.8184" rx="2.5" ry="2.5" style="stroke:#181818;stroke-width:0.5;" width="225.0166" x="1971.5" y="413.9395"/><text fill="#000000" font-family="Helvetica" font-size="14" lengthAdjust="spacing" textLength="78.415" x="1981.5" y="437.502">traffic_table</text><text fill="#000000" font-family="Helvetica" font-size="14" lengthAdjust="spacing" textLength="171.4043" x="1981.5" y="454.4414">per-MAC: role, BSSID, ch,</text><text fill="#000000" font-family="Helvetica" font-size="14" lengthAdjust="spacing" textLength="205.0166" x="1981.5" y="471.3809">RSSI EMA, frames/s, uplink B/s</text></g><!--entity HOP--><g id="elem_HOP"><rect fill="#F1F1F1" height="53.8789" rx="2.5" ry="2.5" style="stroke:#181818;stroke-width:0.5;" width="209.0752" x="1745.5" y="257.4395"/><text fill="#000000" font-family="Helvetica" font-size="14" lengthAdjust="spacing" textLength="86.0439" x="1755.5" y="281.002">chan_hopper</text><text fill="#000000" font-family="Helvetica" font-size="14" lengthAdjust="spacing" textLength="189.0752" x="1755.5" y="297.9414">survey sweep / channel lock</text></g><!--entity CH--><g id="elem_CH"><rect fill="#F1F1F1" height="87.7578" rx="2.5" ry="2.5" style="stroke:#181818;stroke-width:0.5;" width="188.2461" x="1990" y="240.4395"/><text fill="#000000" font-family="Helvetica" font-size="14" lengthAdjust="spacing" textLength="64.1006" x="2000" y="264.002">challenge</text><text fill="#000000" font-family="Helvetica" font-size="14" lengthAdjust="spacing" textLength="155.75" x="2000" y="280.9414">PRBS stimulus, binning,</text><text fill="#000000" font-family="Helvetica" font-size="14" lengthAdjust="spacing" textLength="167.4053" x="2000" y="297.8809">test statistic, permutation</text><text fill="#000000" font-family="Helvetica" font-size="14" lengthAdjust="spacing" textLength="168.2461" x="2000" y="314.8203">threshold, likelihood level</text></g><!--entity LOC--><g id="elem_LOC"><rect fill="#F1F1F1" height="53.8789" rx="2.5" ry="2.5" style="stroke:#181818;stroke-width:0.5;" width="102.7148" x="2213.5" y="257.4395"/><text fill="#000000" font-family="Helvetica" font-size="14" lengthAdjust="spacing" textLength="75.7148" x="2223.5" y="281.002">rssi_locator</text><text fill="#000000" font-family="Helvetica" font-size="14" lengthAdjust="spacing" textLength="82.7148" x="2223.5" y="297.9414">EMA + trend</text></g><!--entity OUI--><g id="elem_OUI"><rect fill="#F1F1F1" height="70.8184" rx="2.5" ry="2.5" style="stroke:#181818;stroke-width:0.5;" width="183.5771" x="1992" y="577.4395"/><text fill="#000000" font-family="Helvetica" font-size="14" lengthAdjust="spacing" textLength="43.5928" x="2002" y="601.002">oui_db</text><text fill="#000000" font-family="Helvetica" font-size="14" lengthAdjust="spacing" textLength="99.2236" x="2002" y="617.9414">vendor lookup,</text><text fill="#000000" font-family="Helvetica" font-size="14" lengthAdjust="spacing" textLength="163.5771" x="2002" y="634.8809">locally-administered flag</text></g><!--entity CAMD--><g id="elem_CAMD"><rect fill="#F1F1F1" height="87.7578" rx="2.5" ry="2.5" style="stroke:#181818;stroke-width:0.5;" width="180.3027" x="611" y="568.9395"/><text fill="#000000" font-family="Helvetica" font-size="14" lengthAdjust="spacing" textLength="56.2188" x="621" y="592.502">cam_drv</text><text fill="#000000" font-family="Helvetica" font-size="14" lengthAdjust="spacing" textLength="160.3027" x="621" y="609.4414">esp32-camera wrapper,</text><text fill="#000000" font-family="Helvetica" font-size="14" lengthAdjust="spacing" textLength="136.7734" x="621" y="626.3809">AEC/AGC/AWB lock,</text><text fill="#000000" font-family="Helvetica" font-size="14" lengthAdjust="spacing" textLength="146.4873" x="621" y="643.3203">VSYNC frame counter</text></g><!--entity LEDD--><g id="elem_LEDD"><rect fill="#F1F1F1" height="70.8184" rx="2.5" ry="2.5" style="stroke:#181818;stroke-width:0.5;" width="208.7061" x="826.5" y="577.4395"/><text fill="#000000" font-family="Helvetica" font-size="14" lengthAdjust="spacing" textLength="48.2207" x="836.5" y="601.002">led_drv</text><text fill="#000000" font-family="Helvetica" font-size="14" lengthAdjust="spacing" textLength="88.3135" x="836.5" y="617.9414">GPIO groups,</text><text fill="#000000" font-family="Helvetica" font-size="14" lengthAdjust="spacing" textLength="188.7061" x="836.5" y="634.8809">frame-synchronous toggling</text></g><!--entity LCDD--><g id="elem_LCDD"><rect fill="#F1F1F1" height="70.8184" rx="2.5" ry="2.5" style="stroke:#181818;stroke-width:0.5;" width="135.1104" x="22.5" y="577.4395"/><text fill="#000000" font-family="Helvetica" font-size="14" lengthAdjust="spacing" textLength="48.0566" x="32.5" y="601.002">lcd_drv</text><text fill="#000000" font-family="Helvetica" font-size="14" lengthAdjust="spacing" textLength="115.1104" x="32.5" y="617.9414">esp_lcd ILI9341 +</text><text fill="#000000" font-family="Helvetica" font-size="14" lengthAdjust="spacing" textLength="104.8838" x="32.5" y="634.8809">minimal 2D/font</text></g><!--entity BTND--><g id="elem_BTND"><rect fill="#F1F1F1" height="70.8184" rx="2.5" ry="2.5" style="stroke:#181818;stroke-width:0.5;" width="200.6943" x="374.5" y="577.4395"/><text fill="#000000" font-family="Helvetica" font-size="14" lengthAdjust="spacing" textLength="49.5195" x="384.5" y="601.002">btn_drv</text><text fill="#000000" font-family="Helvetica" font-size="14" lengthAdjust="spacing" textLength="180.6943" x="384.5" y="617.9414">GPIO ISR + debounce timer</text><text fill="#000000" font-family="Helvetica" font-size="14" lengthAdjust="spacing" textLength="99.7295" x="384.5" y="634.8809">&#8594; event queue</text></g><!--entity BATD--><g id="elem_BATD"><rect fill="#F1F1F1" height="53.8789" rx="2.5" ry="2.5" style="stroke:#181818;stroke-width:0.5;" width="147.1758" x="192.5" y="585.9395"/><text fill="#000000" font-family="Helvetica" font-size="14" lengthAdjust="spacing" textLength="60.9082" x="202.5" y="609.502">batt_mon</text><text fill="#000000" font-family="Helvetica" font-size="14" lengthAdjust="spacing" textLength="127.1758" x="202.5" y="626.4414">ADC oneshot + cali</text></g><!--entity WIFID--><g id="elem_WIFID"><rect fill="#F1F1F1" height="70.8184" rx="2.5" ry="2.5" style="stroke:#181818;stroke-width:0.5;" width="193.7764" x="1269" y="577.4395"/><text fill="#000000" font-family="Helvetica" font-size="14" lengthAdjust="spacing" textLength="58.7344" x="1279" y="601.002">wifi_mon</text><text fill="#000000" font-family="Helvetica" font-size="14" lengthAdjust="spacing" textLength="123.4229" x="1279" y="617.9414">promiscuous cb &#8594;</text><text fill="#000000" font-family="Helvetica" font-size="14" lengthAdjust="spacing" textLength="173.7764" x="1279" y="634.8809">16-byte records &#8594; ringbuf</text></g><!--entity LOG--><g id="elem_LOG"><rect fill="#F1F1F1" height="70.8184" rx="2.5" ry="2.5" style="stroke:#181818;stroke-width:0.5;" width="163.3018" x="1070.5" y="577.4395"/><text fill="#000000" font-family="Helvetica" font-size="14" lengthAdjust="spacing" textLength="44.9736" x="1080.5" y="601.002">devlog</text><text fill="#000000" font-family="Helvetica" font-size="14" lengthAdjust="spacing" textLength="137.6758" x="1080.5" y="617.9414">USB serial streaming</text><text fill="#000000" font-family="Helvetica" font-size="14" lengthAdjust="spacing" textLength="143.3018" x="1080.5" y="634.8809">(CSV / binary frames)</text></g><!--entity PINS--><g id="elem_PINS"><rect fill="#F1F1F1" height="53.8789" rx="2.5" ry="2.5" style="stroke:#181818;stroke-width:0.5;" width="182.9414" x="482.5" y="738.9395"/><text fill="#000000" font-family="Helvetica" font-size="14" lengthAdjust="spacing" textLength="84.9912" x="492.5" y="762.502">board_pins.h</text><text fill="#000000" font-family="Helvetica" font-size="14" lengthAdjust="spacing" textLength="162.9414" x="492.5" y="779.4414">single source of pin map</text></g><!--entity RTOS--><g id="elem_RTOS"><rect fill="#F1F1F1" height="36.9395" rx="2.5" ry="2.5" style="stroke:#181818;stroke-width:0.5;" width="87.5938" x="2244" y="747.4395"/><text fill="#000000" font-family="Helvetica" font-size="14" lengthAdjust="spacing" textLength="67.5938" x="2254" y="771.002">FreeRTOS</text></g><!--entity EW--><g id="elem_EW"><rect fill="#F1F1F1" height="36.9395" rx="2.5" ry="2.5" style="stroke:#181818;stroke-width:0.5;" width="73.9287" x="2135" y="747.4395"/><text fill="#000000" font-family="Helvetica" font-size="14" lengthAdjust="spacing" textLength="53.9287" x="2145" y="771.002">esp_wifi</text></g><!--entity EC--><g id="elem_EC"><rect fill="#F1F1F1" height="36.9395" rx="2.5" ry="2.5" style="stroke:#181818;stroke-width:0.5;" width="196.0117" x="1904" y="747.4395"/><text fill="#000000" font-family="Helvetica" font-size="14" lengthAdjust="spacing" textLength="176.0117" x="1914" y="771.002">esp32-camera component</text></g><!--entity EL--><g id="elem_EL"><rect fill="#F1F1F1" height="36.9395" rx="2.5" ry="2.5" style="stroke:#181818;stroke-width:0.5;" width="146.3213" x="1519" y="747.4395"/><text fill="#000000" font-family="Helvetica" font-size="14" lengthAdjust="spacing" textLength="126.3213" x="1529" y="771.002">esp_lcd / driver/spi</text></g><!--entity ED--><g id="elem_ED"><rect fill="#F1F1F1" height="53.8789" rx="2.5" ry="2.5" style="stroke:#181818;stroke-width:0.5;" width="168.7021" x="1700.5" y="738.9395"/><text fill="#000000" font-family="Helvetica" font-size="14" lengthAdjust="spacing" textLength="148.7021" x="1710.5" y="762.502">driver/gpio, esp_timer,</text><text fill="#000000" font-family="Helvetica" font-size="14" lengthAdjust="spacing" textLength="121.4199" x="1710.5" y="779.4414">esp_adc, task_wdt</text></g><!--link APP to UI--><g id="link_APP_UI"><path d="M511.55,150.2495 C510.35,179.0795 508.8996,213.8546 507.6996,242.6746 " fill="none" id="APP-to-UI" style="stroke:#181818;stroke-width:1.0;"/><polygon fill="#181818" points="507.45,248.6695,511.821,239.8437,507.658,243.6738,503.8279,239.5108,507.45,248.6695" style="stroke:#181818;stroke-width:1.0;"/></g><!--link APP to OPT--><g id="link_APP_OPT"><path d="M588.31,126.9195 C783.18,156.6295 1297.8486,235.085 1513.4786,267.965 " fill="none" id="APP-to-OPT" style="stroke:#181818;stroke-width:1.0;"/><polygon fill="#181818" points="1519.41,268.8695,1511.1158,263.5585,1514.4671,268.1157,1509.9099,271.4671,1519.41,268.8695" style="stroke:#181818;stroke-width:1.0;"/></g><!--link APP to TT--><g id="link_APP_TT"><path d="M588.09,115.5995 C923.7,116.6895 2272.61,125.0295 2334,188.9395 C2379.56,236.3795 2369.47,281.5395 2334,336.9395 C2303.63,384.3695 2253.5445,410.0143 2202.3445,425.7743 " fill="none" id="APP-to-TT" style="stroke:#181818;stroke-width:1.0;"/><polygon fill="#181818" points="2196.61,427.5395,2206.3885,428.7147,2201.3887,426.0685,2204.035,421.0687,2196.61,427.5395" style="stroke:#181818;stroke-width:1.0;"/></g><!--link APP to CH--><g id="link_APP_CH"><path d="M588.01,116.4195 C868.04,120.4495 1842.9,138.0295 1972,188.9395 C1999.93,199.9495 2021.6115,216.7034 2041.5015,236.0734 " fill="none" id="APP-to-CH" style="stroke:#181818;stroke-width:1.0;"/><polygon fill="#181818" points="2045.8,240.2595,2042.143,231.1147,2042.218,236.7711,2036.5616,236.846,2045.8,240.2595" style="stroke:#181818;stroke-width:1.0;"/></g><!--link UI to HIST--><g id="link_UI_HIST"><path d="M468.67,320.0095 C435.68,350.5695 392.6619,390.4023 362.7119,418.1423 " fill="none" id="UI-to-HIST" style="stroke:#181818;stroke-width:1.0;"/><polygon fill="#181818" points="358.31,422.2195,367.631,419.0384,361.9783,418.8219,362.1948,413.1691,358.31,422.2195" style="stroke:#181818;stroke-width:1.0;"/></g><!--link UI to DIAG--><g id="link_UI_DIAG"><path d="M506,320.0095 C506,347.6695 506,380.2695 506,407.9195 " fill="none" id="UI-to-DIAG" style="stroke:#181818;stroke-width:1.0;"/><polygon fill="#181818" points="506,413.9195,510,404.9195,506,408.9195,502,404.9195,506,413.9195" style="stroke:#181818;stroke-width:1.0;"/></g><!--link UI to LCDD--><g id="link_UI_LCDD"><path d="M426.95,315.5495 C374.4,337.8795 305.65,371.7095 253,413.9395 C193.43,461.7195 143.8439,529.3443 115.4039,572.0843 " fill="none" id="UI-to-LCDD" style="stroke:#181818;stroke-width:1.0;"/><polygon fill="#181818" points="112.08,577.0795,120.3959,571.8026,114.8499,572.9168,113.7357,567.3708,112.08,577.0795" style="stroke:#181818;stroke-width:1.0;"/></g><!--link BTND to UI--><g id="link_BTND_UI"><path d="M527.59,577.3695 C559.79,554.9495 596.41,526.6995 605,508.9395 C623.38,470.9295 618.61,453.9095 605,413.9395 C592.7,377.8195 569.8129,348.279 547.1129,324.389 " fill="none" id="BTND-to-UI" style="stroke:#181818;stroke-width:1.0;"/><polygon fill="#181818" points="542.98,320.0395,546.2797,329.3191,546.4241,323.6641,552.0791,323.8085,542.98,320.0395" style="stroke:#181818;stroke-width:1.0;"/><text fill="#000000" font-family="Helvetica" font-size="13" lengthAdjust="spacing" textLength="84.5444" x="618" y="454.5332">button events</text></g><!--link OPT to CAMD--><g id="link_OPT_CAMD"><path d="M1519.43,298.2495 C1361.91,322.6595 1042.02,386.3895 809,525.9395 C788.44,538.2595 772.0999,550.2654 754.1699,564.9654 " fill="none" id="OPT-to-CAMD" style="stroke:#181818;stroke-width:1.0;"/><polygon fill="#181818" points="749.53,568.7695,759.026,566.1566,753.3966,565.5994,753.9539,559.97,749.53,568.7695" style="stroke:#181818;stroke-width:1.0;"/></g><!--link OPT to LEDD--><g id="link_OPT_LEDD"><path d="M1519.42,312.2095 C1466.79,327.3895 1400.48,347.2395 1342,366.9395 C1285.75,385.8895 1269.66,386.5595 1217,413.9395 C1138.69,454.6495 1125.52,475.6195 1053,525.9395 C1028.83,542.7095 1007.019,558.0454 984.759,573.7854 " fill="none" id="OPT-to-LEDD" style="stroke:#181818;stroke-width:1.0;"/><polygon fill="#181818" points="979.86,577.2495,989.5179,575.3193,983.9425,574.3627,984.8991,568.7873,979.86,577.2495" style="stroke:#181818;stroke-width:1.0;"/></g><!--link TT to WIFID--><g id="link_TT_WIFID"><path d="M1996.87,484.9995 C1960.17,497.8995 1916.61,511.0695 1876,517.9395 C1835.13,524.8595 1542.71,514.0495 1503,525.9395 C1468.16,536.3695 1438.3295,554.6856 1412.5995,573.7656 " fill="none" id="TT-to-WIFID" style="stroke:#181818;stroke-width:1.0;"/><polygon fill="#181818" points="1407.78,577.3395,1417.3918,575.1916,1411.7962,574.3612,1412.6266,568.7657,1407.78,577.3395" style="stroke:#181818;stroke-width:1.0;"/></g><!--link TT to OUI--><g id="link_TT_OUI"><path d="M2084,485.0895 C2084,512.3295 2084,544.1195 2084,571.3495 " fill="none" id="TT-to-OUI" style="stroke:#181818;stroke-width:1.0;"/><polygon fill="#181818" points="2084,577.3495,2088,568.3495,2084,572.3495,2080,568.3495,2084,577.3495" style="stroke:#181818;stroke-width:1.0;"/></g><!--link HOP to WIFID--><g id="link_HOP_WIFID"><path d="M1796.72,311.4895 C1775.74,320.7995 1751.16,330.5495 1728,336.9395 C1634.99,362.5895 1593.46,313.6995 1513,366.9395 C1436.67,417.4395 1395.8742,516.6964 1377.9942,571.3964 " fill="none" id="HOP-to-WIFID" style="stroke:#181818;stroke-width:1.0;"/><polygon fill="#181818" points="1376.13,577.0995,1382.7283,569.7877,1377.6835,572.3469,1375.1242,567.3021,1376.13,577.0995" style="stroke:#181818;stroke-width:1.0;"/></g><!--link CH to TT--><g id="link_CH_TT"><path d="M2084,328.6895 C2084,355.2895 2084,382.9195 2084,407.7595 " fill="none" id="CH-to-TT" style="stroke:#181818;stroke-width:1.0;"/><polygon fill="#181818" points="2084,413.7595,2088,404.7595,2084,408.7595,2080,404.7595,2084,413.7595" style="stroke:#181818;stroke-width:1.0;"/><text fill="#000000" font-family="Helvetica" font-size="13" lengthAdjust="spacing" textLength="123.0049" x="2085" y="380.5332">binned uplink series</text></g><!--link LOC to TT--><g id="link_LOC_TT"><path d="M2257.51,311.7495 C2250.2,333.4295 2237.2,363.7795 2217,383.9395 C2205.28,395.6295 2196.2667,402.6009 2181.4967,410.8609 " fill="none" id="LOC-to-TT" style="stroke:#181818;stroke-width:1.0;"/><polygon fill="#181818" points="2176.26,413.7895,2186.0675,412.8877,2180.6239,411.349,2182.1627,405.9054,2176.26,413.7895" style="stroke:#181818;stroke-width:1.0;"/></g><!--link DIAG to BATD--><g id="link_DIAG_BATD"><path d="M452.1,484.9995 C437.76,493.4395 422.06,502.0195 407,508.9395 C385.67,518.7395 377.1,513.8195 357,525.9395 C330.38,541.9895 309.1281,562.4926 292.0081,581.3926 " fill="none" id="DIAG-to-BATD" style="stroke:#181818;stroke-width:1.0;"/><polygon fill="#181818" points="287.98,585.8395,296.9867,581.8545,291.3367,582.1337,291.0575,576.4838,287.98,585.8395" style="stroke:#181818;stroke-width:1.0;"/></g><!--link OPT to LOG--><g id="link_OPT_LOG"><path d="M1519.28,305.7995 C1472.89,318.5695 1417.86,338.1795 1374,366.9395 C1286.4,424.3795 1214.2625,519.4806 1178.1225,572.2006 " fill="none" id="OPT-to-LOG" style="stroke:#181818;stroke-width:1.0;stroke-dasharray:7.0,7.0;"/><polygon fill="#181818" points="1174.73,577.1495,1183.1179,571.9878,1177.5571,573.0254,1176.5195,567.4645,1174.73,577.1495" style="stroke:#181818;stroke-width:1.0;"/></g><!--link CH to LOG--><g id="link_CH_LOG"><path d="M1993.78,328.5395 C1986.48,331.5395 1979.15,334.3795 1972,336.9395 C1894.13,364.8195 1325.23,487.4895 1252,525.9395 C1227.06,539.0295 1207.3176,555.2332 1189.0576,572.8532 " fill="none" id="CH-to-LOG" style="stroke:#181818;stroke-width:1.0;stroke-dasharray:7.0,7.0;"/><polygon fill="#181818" points="1184.74,577.0195,1193.994,573.6484,1188.338,573.5475,1188.4389,567.8916,1184.74,577.0195" style="stroke:#181818;stroke-width:1.0;"/></g><!--link TT to LOG--><g id="link_TT_LOG"><path d="M1971.47,468.4995 C1866.58,484.5195 1705.64,507.0295 1565,517.9395 C1530.32,520.6295 1284.46,513.4295 1252,525.9395 C1224.44,536.5595 1203.4139,553.9899 1185.2139,572.9599 " fill="none" id="TT-to-LOG" style="stroke:#181818;stroke-width:1.0;stroke-dasharray:7.0,7.0;"/><polygon fill="#181818" points="1181.06,577.2895,1190.1772,573.5643,1184.5216,573.6815,1184.4044,568.0258,1181.06,577.2895" style="stroke:#181818;stroke-width:1.0;"/></g><!--link CAMD to EC--><g id="link_CAMD_EC"><path d="M768.98,656.9695 C781.84,663.2795 795.5,668.8595 809,672.4395 C1040.61,733.8295 1656.79,629.4695 1887,695.9395 C1922.57,706.2095 1953.554,726.6945 1975.534,743.5045 " fill="none" id="CAMD-to-EC" style="stroke:#181818;stroke-width:1.0;"/><polygon fill="#181818" points="1980.3,747.1495,1975.581,738.5047,1976.3284,744.112,1970.7211,744.8593,1980.3,747.1495" style="stroke:#181818;stroke-width:1.0;"/></g><!--link WIFID to EW--><g id="link_WIFID_EW"><path d="M1433.35,648.4795 C1455.04,658.0095 1479.53,667.1695 1503,672.4395 C1569.72,687.4195 2057.11,664.8195 2118,695.9395 C2139.4,706.8795 2152.1394,725.2984 2160.9194,741.8584 " fill="none" id="WIFID-to-EW" style="stroke:#181818;stroke-width:1.0;"/><polygon fill="#181818" points="2163.73,747.1595,2163.0482,737.3342,2161.3879,742.7419,2155.9801,741.0816,2163.73,747.1595" style="stroke:#181818;stroke-width:1.0;"/></g><!--link LCDD to EL--><g id="link_LCDD_EL"><path d="M130.24,648.5795 C143.62,658.1095 159.17,667.2495 175,672.4395 C281.9,707.4795 568.53,685.6495 681,687.9395 C703.16,688.3895 1457.69,689.8295 1479,695.9395 C1514.35,706.0695 1544.9418,726.7829 1566.4418,743.6729 " fill="none" id="LCDD-to-EL" style="stroke:#181818;stroke-width:1.0;"/><polygon fill="#181818" points="1571.16,747.3795,1566.5537,738.6742,1567.2282,744.2907,1561.6117,744.9651,1571.16,747.3795" style="stroke:#181818;stroke-width:1.0;"/></g><!--link BTND to ED--><g id="link_BTND_ED"><path d="M532.7,648.5295 C551.59,658.1295 573.09,667.3095 594,672.4395 C663.62,689.5095 1167.33,686.4295 1239,687.9395 C1263.67,688.4595 1659.48,688.4995 1683,695.9395 C1710.31,704.5795 1732.3307,719.2869 1751.5407,734.9569 " fill="none" id="BTND-to-ED" style="stroke:#181818;stroke-width:1.0;"/><polygon fill="#181818" points="1756.19,738.7495,1751.7444,729.961,1752.3155,735.589,1746.6876,736.1602,1756.19,738.7495" style="stroke:#181818;stroke-width:1.0;"/></g><!--link LEDD to ED--><g id="link_LEDD_ED"><path d="M990.6,648.5195 C1009.89,658.0495 1031.79,667.1995 1053,672.4395 C1189.01,706.0395 1549.84,652.3995 1683,695.9395 C1710.23,704.8395 1732.2395,719.5506 1751.4795,735.1506 " fill="none" id="LEDD-to-ED" style="stroke:#181818;stroke-width:1.0;"/><polygon fill="#181818" points="1756.14,738.9295,1751.6684,730.1542,1752.2562,735.7804,1746.63,736.3683,1756.14,738.9295" style="stroke:#181818;stroke-width:1.0;"/></g><!--link BATD to ED--><g id="link_BATD_ED"><path d="M297.1,640.0295 C313.75,652.3495 335.27,665.7795 357,672.4395 C428.09,694.2195 951.66,686.6295 1026,687.9395 C1044.25,688.2595 1665.58,690.4895 1683,695.9395 C1710.34,704.4995 1732.3542,719.2025 1751.5642,734.9025 " fill="none" id="BATD-to-ED" style="stroke:#181818;stroke-width:1.0;"/><polygon fill="#181818" points="1756.21,738.6995,1751.7726,729.9069,1752.3385,735.5353,1746.71,736.1013,1756.21,738.6995" style="stroke:#181818;stroke-width:1.0;"/></g><!--link CAMD to PINS--><g id="link_CAMD_PINS"><path d="M637.84,657.3295 C627.38,666.3195 617.26,676.3195 609,686.9395 C596.97,702.4095 590.0922,717.0213 584.2722,733.0113 " fill="none" id="CAMD-to-PINS" style="stroke:#181818;stroke-width:1.0;stroke-dasharray:7.0,7.0;"/><polygon fill="#181818" points="582.22,738.6495,589.057,731.5603,583.9301,733.951,581.5395,728.8241,582.22,738.6495" style="stroke:#181818;stroke-width:1.0;"/></g><!--link LEDD to PINS--><g id="link_LEDD_PINS"><path d="M861.08,648.5295 C844.14,656.6195 826.01,665.0295 809,672.4395 C754.14,696.3495 696.579,718.9289 649.559,736.7889 " fill="none" id="LEDD-to-PINS" style="stroke:#181818;stroke-width:1.0;stroke-dasharray:7.0,7.0;"/><polygon fill="#181818" points="643.95,738.9195,653.7838,739.463,648.6242,737.144,650.9432,731.9843,643.95,738.9195" style="stroke:#181818;stroke-width:1.0;"/></g><!--link LCDD to PINS--><g id="link_LCDD_PINS"><path d="M133.58,648.5395 C146.35,657.3795 160.74,666.1495 175,672.4395 C275.2,716.6195 393.2971,740.2246 476.2371,752.7346 " fill="none" id="LCDD-to-PINS" style="stroke:#181818;stroke-width:1.0;stroke-dasharray:7.0,7.0;"/><polygon fill="#181818" points="482.17,753.6295,473.8672,748.3319,477.2259,752.8837,472.6741,756.2424,482.17,753.6295" style="stroke:#181818;stroke-width:1.0;"/></g><!--link BTND to PINS--><g id="link_BTND_PINS"><path d="M497.71,648.5795 C515.75,676.0995 537.2904,708.9516 553.6604,733.9216 " fill="none" id="BTND-to-PINS" style="stroke:#181818;stroke-width:1.0;stroke-dasharray:7.0,7.0;"/><polygon fill="#181818" points="556.95,738.9395,555.3608,729.2197,554.2087,734.7579,548.6704,733.6058,556.95,738.9395" style="stroke:#181818;stroke-width:1.0;"/></g><!--SRC=[LLHDR-Cs4BtxLmpsb63b6Dbj5-WU5h3bV0X8OYDo4XHrOL3Io2PCaIn9sMiK1NegUbxq5-QNT8QIDzw3W24rypZptim46HH2RWzvAJGyNyBht_z1Rkgm5mx11zUMeNL2GIN5sea6pfGueFCWT0MDgLg5_dpWjr9RmRzBqrYZKOSy70ZOOHc4NYiySQcm5gqArqQ71z4WtABQOP2bEF7n6r6PlTHhg8NoE1XOKMx56k7Ts5f5la4Q3J6LT_3d0E0tOUsg34ujDMM5q0XDxYvPQeVUjAv44AwGmSN8tq5u6C_d7DZALUsRfVQbGzGUteCMExcEVajzPeqBeg1IqWIqWTkNynZyb77iHlfWt862qNlEY1wZqdnqkSto1JinSqjTY13G7HBOeB09CKi5-OGZjJUEpw7jugRP-6Rmrqd9Kmn48yDxT3jPekzhDfPfKoihBIgfSQbd3w__VfjTNvDSTSq9IuyHcvyIbQ207KBOK9uRewe42cKA_cT9Koe6DH5599NRo9sfww7uAZr4sY2W3p75sJnMHevrBSjL92XY3E_7wMTmHc42appFfWcK6m9w91kkxiS9r2Gl-f5Fe2KXzHOcewxiHOGiDqAlDiOI5d7JkXqUmEyHBOo0_sbKe4ovxHYUpViOfL2lAONvuoIdUcNJgfQUAAJMr4IK0ASUYQ0YPPa0uJTjw4K-uKF9BL6vCQO2XJjKyPtqbfzn9F6AtXOa-L9JCTGgmQ6kei_TB8sIK3jLnLBlw9vaLSPiMqllSvnIXw6e6gcPQ8SLr4giEpwfdNvGt95CD6GZ8d7UYrsAPbMvtLAZjny_3Ec8Ji3U2UQANXXVfQFn3NqlayWGNJtdlpwa7UCqc2sHuBfwnlTJXbHOTP0tysm6QsTQoxqG0uR-eCkDCzgq7e9PhqciBjcxgsaNNLRV4rhH0RAxx9UFFrt2Uvf1AhAXhV5XEgffphkuj8ihWZvvDSiVYSSA2ygFUqyshFphFz-0wDS1_cYnnHW_MJnqyJH9guPr6qzJe6L3qWN2889bvpXUHCUzh6NdQ9rff2zRhgKiWD2N-lBJi3Y4kAACgpnVWgCQYxQEA2_PTHPXAjmfGnFyb4zu02MLHNiH1TL8jsTf_amwKQS9T-Yx-xplY9kOhX6keX7L_c93BIrv6qA_aamDz8EMbOqHy-mX_w4FhlBvC9jUm-xdYwzz6rpJbdfSpF8Om0PViW9SRRoyUkclthha-rRk7D9Z3AisWYfssyZRFlukLjrThgqq2R1lL2Rfr1OLZL0GVhlQLptcb1EdbGh3uHVUZaUJLyNHNhoPD59FMRJYckpjkFfwExOBQzuZmcSesX1e2yR6y0D2xg2ucu-7s9oBpkuKx0yyOhGlJdwajtrIZ4oBWWQoNqciCle1ZVGnRKuish6t-B6BYozHOK8vcektsm4d5GE8xFXSTtWPS5cTVVTM7R77YHzjVkHeHo26ZSqHlTvEwUafeXrF_mC0]--></g></svg>